<?xml version="1.0" encoding="utf-8"?>
<!-- Generator: Adobe Illustrator 18.1.1, SVG Export Plug-In . SVG Version: 6.00 Build 0)  -->
<!DOCTYPE svg PUBLIC "-//W3C//DTD SVG 1.1//EN" "http://www.w3.org/Graphics/SVG/1.1/DTD/svg11.dtd">
<svg version="1.1" id="Layer_1" xmlns="http://www.w3.org/2000/svg" xmlns:xlink="http://www.w3.org/1999/xlink" x="0px" y="0px"
	 viewBox="-474.1 396.4 1013.9 734" enable-background="new -474.1 396.4 1013.9 734" xml:space="preserve">
<path fill="#CCCCCC" d="M78.7,949.3v-37.9c50.4-28.6,91.7-99.9,91.7-170.9c0-113.5,0-206.4-137.5-206.4s-137.5,93-137.5,206.4
	c0,71.1,41.3,142.2,91.7,170.9v37.9c-156,12.7-275.3,89.4-275.3,181.2h642.2C353.9,1037.6,234.7,961.9,78.7,949.3z"/>
<path fill="#CCCCCC" d="M-240.3,966.4C-200.2,940-151,920.5-96.9,909c-10.3-12.7-20.6-27.5-28.6-42.4
	c-21.8-40.1-33.3-83.7-33.3-126.1c0-62,0-120.4,21.8-167.4c21.8-45.8,59.7-74.6,114.7-86c-12.7-55.1-44.8-90.6-130.7-90.6
	c-137.5,0-137.5,93-137.5,206.4c0,71.1,41.3,142.2,91.7,170.9v37.9c-156,12.7-275.3,89.4-275.3,181.2h199.5
	C-265.5,983.6-253,974.5-240.3,966.4z"/>
<path fill="#CCCCCC" d="M340.3,992.8h199.5c0-93-119.2-168.6-275.3-181.2v-37.9c50.4-28.6,91.7-99.9,91.7-170.9
	c0-113.5,0-206.4-137.5-206.4c-86,0-118.2,35.5-130.7,90.6c55.1,10.3,93,38.9,114.7,86c21.8,48.3,21.8,105.5,21.8,167.5
	c0,42.4-11.5,86-33.3,126.1c-8,14.9-18.3,29.9-28.6,42.4c53.8,11.5,103.3,32.1,143.4,57.3C318.5,974.5,330,983.6,340.3,992.8z"/>
</svg>
