<?xml version="1.0" encoding="utf-8"?>
<!-- Generator: Adobe Illustrator 18.1.1, SVG Export Plug-In . SVG Version: 6.00 Build 0)  -->
<!DOCTYPE svg PUBLIC "-//W3C//DTD SVG 1.1//EN" "http://www.w3.org/Graphics/SVG/1.1/DTD/svg11.dtd">
<svg version="1.1" id="Layer_1" xmlns="http://www.w3.org/2000/svg" xmlns:xlink="http://www.w3.org/1999/xlink" x="0px" y="0px"
	 viewBox="0 0 235.2 86" enable-background="new 0 0 235.2 86" xml:space="preserve">
<path fill="#FFFFFF" d="M182.2,0.5c-8.3,0-15.7,1.5-21.1,3.4c0,0-10.9,3.1-21.3,13.5l-22.2,22.2L98.9,21.1
	c-4.7-4-20.5-20.6-45.7-20.6C24.2,0.5,0.5,19.6,0.5,43S24.1,85.5,53,85.5c8.3,0,15.7-1.5,21.1-3.4c0,0,10.9-3.1,21.3-13.5l22.2-22.2
	l18.7,18.6c4.7,4,20.5,20.6,45.7,20.6c28.9,0,52.6-19.1,52.6-42.5S211.2,0.5,182.2,0.5z M104.4,52.8c-4.5,4.4-12.5,12.8-16.5,16.4
	C79.7,76.7,66.4,80.5,53,80.5C26.8,80.5,5.5,63.7,5.5,43S26.8,4.9,53,5.5c17.3,0.4,26.8,6.2,33.9,11.1c7.3,5.4,17,16.1,17,16.1
	L114.2,43L104.4,52.8z M182.2,80.5c-17.3-0.4-26.8-6.2-33.9-11.1c-7.3-5.4-17-16.1-17-16.1L121,43l9.8-9.8
	c4.5-4.4,12.5-12.8,16.5-16.4c8.2-7.5,21.6-11.2,34.9-11.2c26.2,0,47.5,16.8,47.5,37.5S208.4,81.1,182.2,80.5z"/>
<g>
	<path fill="#FFFFFF" d="M36.7,32.4c-2.4,0.1-4.1-0.8-4.6-2.3c-0.1-0.4,0-0.6,0.4-0.5c3.6,0.3,10.2-1.2,12.5-1.1
		c1.7,0,3.2,0.5,3.8,2c0.1,0.3,0,0.6-0.5,0.6c-2-0.2-4.5,0.2-6.8,0.6c0,1-0.2,2.3-1.3,4.2c-2.4,4.4-5.8,10-8.9,17.3
		c-0.2,0.4-0.4,0.4-0.6,0.1c-0.6-0.5-1-1.7-0.5-3.6c0.9-3.3,5.2-12,9-17.6C38.2,32.3,37.4,32.4,36.7,32.4z"/>
	<path fill="#FFFFFF" d="M37.9,47.9c1-2.9,3.6-7.6,5.1-9.7c0.4-0.5,0.6-0.6,1-0.2c0.6,0.6,0.9,2.4,0,4.4c-0.8,1.8-2.5,4.5-3.4,6.5
		c-1,2.3-0.9,3.9,0.4,3.8c1.8-0.1,4-2.7,5.2-5.5c0.2-0.4,0.5-0.3,0.6,0c0.3,0.6,0.2,1.5-0.3,2.5c-1.2,2.5-3.7,4.2-6,4.2
		C37.5,53.7,36.7,51.2,37.9,47.9z M46.8,37.5c-0.5,0.6-1.6,0.4-2.2-0.6c-0.6-1.1-0.4-2.3,0.2-3c0.6-0.7,1.8-0.2,2.3,0.9
		C47.6,35.8,47.3,36.9,46.8,37.5z"/>
	<path fill="#FFFFFF" d="M58.3,37.4c1.4,0,2.1,2.2,1.6,3.9c1.9-1.9,4.6-3.8,5.9-3.7c1.4,0,1.8,2.4,1,4.4c-0.7,1.8-2.7,4.4-3.7,6.4
		c-1.1,2.3-0.6,4.1,0.9,4.1c1.6,0,3.4-2.7,5-5.5c0.2-0.4,0.5-0.4,0.7-0.1s0.1,1.6-0.4,2.5c-1.1,2.3-3.7,4.3-6,4.3
		c-3.5,0-4.8-2.8-3.3-6c1.5-3.3,5-7.8,4.4-8c-0.3-0.1-1.7,0.3-4.3,2.9c-3.3,3.3-5.3,7.2-7,10.9c-0.2,0.5-0.6,0.6-0.9,0.2
		c-0.7-0.6-1.2-2.2-0.1-5c1.3-3.3,5.6-8.8,4.8-9.1c-0.5-0.2-2.4,0.9-5,3.7c-2.4,2.6-4.3,6.3-5.9,10c-0.2,0.4-0.4,0.5-0.8,0.2
		c-0.9-0.8-1.1-2.1-0.4-4.1c0.8-2.5,3.8-8.2,6.3-11.9c0.3-0.4,0.6-0.4,0.8,0c0.7,1.1,0.6,2.7,0,4.3C53.9,39.7,56.9,37.4,58.3,37.4z"
		/>
	<path fill="#FFFFFF" d="M73.9,52.6c3.3,0.2,6.2-3,8-5.7c0.2-0.3,0.5-0.3,0.7,0c0.2,0.3,0,1.4-0.7,2.5c-1.7,2.4-4.8,4.3-7.8,4.3
		c-5.1,0.1-6.8-4.9-4.2-10.1c2.6-5.2,6.7-7.2,8.7-6.1c1,0.6,1.7,1.2,2.4,2.1c0.7,1,0.4,3.4-1.3,5.4c-2,2.4-4.6,3.4-7.4,1.2
		C70.8,50,71.8,52.5,73.9,52.6z M77.2,43.4c1.3-1.7,2.2-3.8,1.6-4.2c-0.8-0.7-4.2,1.7-6,5.5c-0.1,0.2-0.2,0.5-0.3,0.7
		C74.4,46.7,76.1,44.9,77.2,43.4z"/>
</g>
<g>
	<path fill="#FFFFFF" d="M152.1,53.5c-0.3,0.4-0.7,0.6-1.2,0.2c-1.4-1.2-1.7-2.8-1.1-5.5c1.4-6.1,4.7-15.3,6.6-19
		c0.3-0.6,0.7-0.6,1-0.2c0.7,1.2,0.8,2.6-0.4,5.7c-1.3,3.6-3.3,8.8-5,14.5c3.7-6.1,9.9-14.5,14-19.5c0.3-0.3,0.7-0.4,1,0
		c0.8,1.2,1,2.2,0,5.2c-1.3,3.8-3,8.6-4.5,14.4c4-6.6,11.8-16.9,15.3-20.6c0.5-0.5,0.9-0.4,1,0.2c0.2,1.4-0.3,3.1-2.3,5.8
		c-2.9,3.8-8.8,11.2-13.7,18.6c-0.3,0.5-0.7,0.7-1.2,0.2c-1.4-1.2-1.8-2.7-1.2-5.5c0.6-3,2-7.4,3.3-11.1
		C160.1,41.6,155.5,48.1,152.1,53.5z"/>
	<path fill="#FFFFFF" d="M185.3,37.7c0.4-0.5,0.7-0.6,1-0.2c0.6,0.7,0.9,2.4,0,4.4c-0.9,1.8-2.9,4.8-3.8,6.9c-1,2.2-1,4,0.3,3.9
		c1.6-0.1,3.8-2.8,5.2-5.6c0.2-0.4,0.5-0.4,0.6,0c0.2,0.4,0.2,1.4-0.4,2.5c-1,2.2-3.6,4.4-5.8,4.3c-2.2-0.1-3.3-1.4-3.3-3.3
		c-1.3,1.6-3.1,3.1-5,3.1c-3.7,0-4.5-5.1-1.2-9.9c3.2-4.7,6.4-6.5,8.4-6.5c1.7,0,2.5,1.3,2.4,2.9C184.4,39.2,184.9,38.3,185.3,37.7z
		 M182.1,39.3c-1.3-0.1-4.2,2.5-6.4,6c-2.1,3.4-2.6,7-1.1,7c1.6,0,3.7-2.5,5.8-6C182.9,41.9,183.3,39.5,182.1,39.3z"/>
	<path fill="#FFFFFF" d="M190.9,52.5c1.9,0.2,4.7-2.7,6.3-5.8c0.3-0.5,0.7-0.6,0.9,0c0.2,0.6,0,1.5-0.4,2.5
		c-0.6,1.2-3.5,4.5-6.7,4.4c-2.8-0.1-4.2-2-3.3-6.3c1.5-7,6-14.2,10.1-18.4c0.6-0.6,1.2-0.7,1.7-0.2c1.2,1,1.4,2.5,0.9,4.4
		c-1.2,4.9-5.7,9.7-9.3,12C189.5,49.1,189.1,52.4,190.9,52.5z M199,32.3c-0.5-0.3-3.5,4.1-6.2,9.2c-0.4,0.6-0.7,1.3-1,1.9
		C197.3,39,199.5,32.6,199,32.3z"/>
	<path fill="#FFFFFF" d="M200.1,52.5c1.9,0.2,4.7-2.7,6.3-5.8c0.3-0.5,0.7-0.6,0.9,0c0.2,0.6,0,1.5-0.4,2.5
		c-0.6,1.2-3.5,4.5-6.7,4.4c-2.8-0.1-4.2-2-3.3-6.3c1.5-7,6-14.2,10.1-18.4c0.6-0.6,1.2-0.7,1.7-0.2c1.2,1,1.4,2.5,0.9,4.4
		c-1.2,4.9-5.7,9.7-9.3,12C198.7,49.1,198.3,52.4,200.1,52.5z M208.2,32.3c-0.5-0.3-3.5,4.1-6.2,9.2c-0.4,0.6-0.7,1.3-1,1.9
		C206.5,39,208.7,32.6,208.2,32.3z"/>
</g>
</svg>
